<svg version="1.1" xmlns="http://www.w3.org/2000/svg" xmlns:xlink="http://www.w3.org/1999/xlink" width="16" height="16" viewBox="0,0,256,256"><g fill="#364773" fill-rule="none" stroke="none" stroke-width="1" stroke-linecap="butt" stroke-linejoin="miter" stroke-miterlimit="10" stroke-dasharray="" stroke-dashoffset="0" font-family="none" font-weight="none" font-size="none" text-anchor="none" style="mix-blend-mode: normal"><g transform="translate(-0.15452,-0.00296) scale(16,16)"><path d="M0.5,6c-0.15154,0.00006 -0.29488,0.06884 -0.38974,0.18703c-0.09486,0.11818 -0.131,0.27301 -0.09826,0.42097l1.652,7.434c0.25402,1.1438 1.26833,1.95775 2.44,1.958h5.792c1.17167,-0.00025 2.18598,-0.8142 2.44,-1.958l0.131,-0.59c1.59002,0.29739 3.12952,-0.71937 3.4802,-2.2985c0.35068,-1.57913 -0.61375,-3.15194 -2.1802,-3.5555l0.221,-0.99c0.03273,-0.14796 -0.00341,-0.30279 -0.09826,-0.42097c-0.09486,-0.11818 -0.23819,-0.18697 -0.38974,-0.18703zM13,12.5c-0.10583,0 -0.21149,-0.00836 -0.316,-0.025l0.867,-3.898c0.95614,0.27693 1.56333,1.21457 1.42488,2.20032c-0.13845,0.98576 -0.98045,1.71985 -1.97588,1.72268z" fill-rule="evenodd"></path><path d="M4.4,0.8l-0.003,0.004l-0.014,0.019c-0.07257,0.10025 -0.14064,0.20369 -0.204,0.31c-0.05273,0.08585 -0.09983,0.17504 -0.141,0.267c-0.026,0.06 -0.034,0.092 -0.037,0.103v0.004c0.0113,0.08846 0.04241,0.17323 0.091,0.248c0.075,0.133 0.178,0.272 0.308,0.445l0.01,0.012c0.118,0.158 0.26,0.347 0.37,0.543c0.112,0.2 0.22,0.455 0.22,0.745c0,0.188 -0.065,0.368 -0.119,0.494c-0.0587,0.13365 -0.12618,0.26326 -0.202,0.388c-0.07894,0.13083 -0.16334,0.25827 -0.253,0.382l-0.018,0.025l-0.005,0.008l-0.002,0.002c-0.16541,0.22119 -0.47881,0.26641 -0.7,0.101c-0.22119,-0.16541 -0.26641,-0.47881 -0.101,-0.7l0.003,-0.004l0.014,-0.019c0.07259,-0.10024 0.14066,-0.20368 0.204,-0.31c0.05347,-0.08543 0.10059,-0.17467 0.141,-0.267c0.026,-0.06 0.034,-0.092 0.037,-0.103c-0.01041,-0.08976 -0.04119,-0.17595 -0.09,-0.252c-0.09362,-0.15463 -0.19682,-0.30326 -0.309,-0.445l-0.01,-0.012c-0.13488,-0.17286 -0.25847,-0.35423 -0.37,-0.543c-0.1362,-0.22527 -0.21198,-0.48188 -0.22,-0.745c0,-0.188 0.065,-0.368 0.119,-0.494c0.059,-0.138 0.134,-0.274 0.202,-0.388c0.07894,-0.13083 0.16335,-0.25827 0.253,-0.382l0.025,-0.035c0.16541,-0.22119 0.47881,-0.26641 0.7,-0.101c0.22119,0.16541 0.26641,0.47881 0.101,0.7zM7.4,0.8l-0.003,0.004l-0.014,0.019c-0.07257,0.10025 -0.14064,0.20369 -0.204,0.31c-0.05273,0.08585 -0.09983,0.17504 -0.141,0.267c-0.026,0.06 -0.034,0.092 -0.037,0.103v0.004c0.0113,0.08846 0.04241,0.17323 0.091,0.248c0.075,0.133 0.178,0.272 0.308,0.445l0.01,0.012c0.118,0.158 0.26,0.347 0.37,0.543c0.112,0.2 0.22,0.455 0.22,0.745c0,0.188 -0.065,0.368 -0.119,0.494c-0.0587,0.13365 -0.12618,0.26326 -0.202,0.388c-0.07894,0.13083 -0.16334,0.25827 -0.253,0.382l-0.018,0.025l-0.005,0.008l-0.002,0.002c-0.16541,0.22119 -0.47881,0.26641 -0.7,0.101c-0.22119,-0.16541 -0.26641,-0.47881 -0.101,-0.7l0.003,-0.004l0.014,-0.019c0.07259,-0.10024 0.14066,-0.20368 0.204,-0.31c0.05347,-0.08543 0.10059,-0.17467 0.141,-0.267c0.026,-0.06 0.034,-0.092 0.037,-0.103c-0.01041,-0.08976 -0.04119,-0.17595 -0.09,-0.252c-0.09362,-0.15463 -0.19682,-0.30326 -0.309,-0.445l-0.01,-0.012c-0.13488,-0.17286 -0.25847,-0.35423 -0.37,-0.543c-0.1362,-0.22527 -0.21198,-0.48188 -0.22,-0.745c0,-0.188 0.065,-0.368 0.119,-0.494c0.059,-0.138 0.134,-0.274 0.202,-0.388c0.07894,-0.13083 0.16335,-0.25827 0.253,-0.382l0.025,-0.035c0.16541,-0.22119 0.47881,-0.26641 0.7,-0.101c0.22119,0.16541 0.26641,0.47881 0.101,0.7zM10.4,0.8l-0.003,0.004l-0.014,0.019c-0.07267,0.10018 -0.14074,0.20362 -0.204,0.31c-0.05271,0.08587 -0.0998,0.17505 -0.141,0.267c-0.026,0.06 -0.034,0.092 -0.037,0.103v0.004c0.0113,0.08846 0.04241,0.17323 0.091,0.248c0.075,0.133 0.178,0.272 0.308,0.445l0.01,0.012c0.118,0.158 0.26,0.347 0.37,0.543c0.112,0.2 0.22,0.455 0.22,0.745c0,0.188 -0.065,0.368 -0.119,0.494c-0.0584,0.13379 -0.12589,0.26343 -0.202,0.388c-0.07855,0.13085 -0.16262,0.2583 -0.252,0.382l-0.019,0.025l-0.005,0.008l-0.002,0.002c-0.16541,0.22119 -0.47881,0.26641 -0.7,0.101c-0.22119,-0.16541 -0.26641,-0.47881 -0.101,-0.7l0.003,-0.004l0.014,-0.019c0.07259,-0.10024 0.14066,-0.20368 0.204,-0.31c0.05347,-0.08543 0.10059,-0.17467 0.141,-0.267c0.026,-0.06 0.034,-0.092 0.037,-0.103c-0.01041,-0.08976 -0.04119,-0.17595 -0.09,-0.252c-0.09362,-0.15463 -0.19682,-0.30326 -0.309,-0.445l-0.01,-0.012c-0.13488,-0.17286 -0.25847,-0.35423 -0.37,-0.543c-0.1362,-0.22527 -0.21198,-0.48188 -0.22,-0.745c0,-0.188 0.065,-0.368 0.119,-0.494c0.059,-0.138 0.134,-0.274 0.202,-0.388c0.07894,-0.13083 0.16335,-0.25827 0.253,-0.382l0.025,-0.035c0.16541,-0.22119 0.47881,-0.26641 0.7,-0.101c0.22119,0.16541 0.26641,0.47881 0.101,0.7z" fill-rule="nonzero"></path></g></g></svg>