<svg version="1.1" xmlns="http://www.w3.org/2000/svg" xmlns:xlink="http://www.w3.org/1999/xlink" width="16" height="16" viewBox="0,0,256,256"><g fill="#445e39" fill-rule="nonzero" stroke="none" stroke-width="1" stroke-linecap="butt" stroke-linejoin="miter" stroke-miterlimit="10" stroke-dasharray="" stroke-dashoffset="0" font-family="none" font-weight="none" font-size="none" text-anchor="none" style="mix-blend-mode: normal"><g transform="scale(16,16)"><path d="M3,2.5c0,-1.38071 1.11929,-2.5 2.5,-2.5c1.38071,0 2.5,1.11929 2.5,2.5c0,-1.38071 1.11929,-2.5 2.5,-2.5c1.38071,0 2.5,1.11929 2.5,2.5v0.006c0,0.07 0,0.27 -0.038,0.494h2.038c0.55228,0 1,0.44772 1,1v1c0,0.55228 -0.44772,1 -1,1h-14c-0.55228,0 -1,-0.44772 -1,-1v-1c0,-0.55228 0.44772,-1 1,-1h2.038c-0.02641,-0.16332 -0.03912,-0.32856 -0.038,-0.494zM4.068,3h2.932v-0.5c0,-0.82843 -0.67157,-1.5 -1.5,-1.5c-0.82843,0 -1.5,0.67157 -1.5,1.5c0,0.085 0.002,0.274 0.045,0.43c0.00601,0.02385 0.01369,0.04724 0.023,0.07zM9,3h2.932c0.0092,-0.0228 0.01688,-0.04619 0.023,-0.07c0.043,-0.156 0.045,-0.345 0.045,-0.43c0,-0.82843 -0.67157,-1.5 -1.5,-1.5c-0.82843,0 -1.5,0.67157 -1.5,1.5zM15,7v7.5c0,0.82843 -0.67157,1.5 -1.5,1.5h-4.5v-9zM2.5,16c-0.82843,0 -1.5,-0.67157 -1.5,-1.5v-7.5h6v9z"></path></g></g></svg>