<svg version="1.1" xmlns="http://www.w3.org/2000/svg" xmlns:xlink="http://www.w3.org/1999/xlink" width="16" height="16" viewBox="0,0,256,256"><g fill="#ff9900" fill-rule="nonzero" stroke="none" stroke-width="1" stroke-linecap="butt" stroke-linejoin="miter" stroke-miterlimit="10" stroke-dasharray="" stroke-dashoffset="0" font-family="none" font-weight="none" font-size="none" text-anchor="none" style="mix-blend-mode: normal"><g transform="translate(0.00749,-0.00466) scale(16,16)"><path d="M15.964,0.686c0.07434,-0.18573 0.03082,-0.3979 -0.11064,-0.53936c-0.14146,-0.14146 -0.35363,-0.18498 -0.53936,-0.11064l-14.547,5.819h-0.001l-0.452,0.18c-0.17456,0.06963 -0.29533,0.23126 -0.31263,0.41839c-0.0173,0.18713 0.07179,0.36816 0.23063,0.46861l0.41,0.26l0.001,0.002l4.995,3.178l3.178,4.995l0.002,0.002l0.26,0.41c0.10077,0.15821 0.2816,0.24671 0.46836,0.22922c0.18676,-0.0175 0.34801,-0.13804 0.41764,-0.31222zM14.131,2.576l-7.494,7.494l-0.215,-0.338c-0.03939,-0.06203 -0.09197,-0.11461 -0.154,-0.154l-0.338,-0.215l7.494,-7.494l1.178,-0.471l-0.47,1.178z"></path></g></g></svg>